<?xml version="1.0" standalone="no"?>
<!DOCTYPE svg PUBLIC "-//W3C//DTD SVG 20010904//EN"
 "http://www.w3.org/TR/2001/REC-SVG-20010904/DTD/svg10.dtd">
<svg version="1.0" xmlns="http://www.w3.org/2000/svg"
 width="431.000000pt" height="431.000000pt" viewBox="0 0 431.000000 431.000000"
 preserveAspectRatio="xMidYMid meet">
<metadata>
Created by potrace 1.11, written by Peter Selinger 2001-2013
</metadata>
<g transform="translate(0.000000,431.000000) scale(0.100000,-0.100000)"
fill="#000000" stroke="none">
<path d="M1902 3587 l-52 -53 0 -201 0 -202 43 -12 c23 -6 107 -29 187 -50 79
-21 151 -39 160 -39 9 0 39 24 68 53 l52 53 -2 199 -3 198 -195 53 c-107 29
-197 53 -200 54 -3 0 -29 -24 -58 -53z"/>
<path d="M1501 3096 l-51 -52 2 -504 3 -504 98 -25 97 -26 0 -501 0 -501 98
-26 97 -25 58 56 57 56 0 329 c0 259 3 328 13 325 6 -3 72 -20 144 -39 l133
-34 0 -401 0 -401 98 -26 97 -26 58 57 57 56 0 429 c0 368 2 428 14 424 8 -3
30 -9 48 -12 31 -6 38 -2 86 48 l51 55 0 496 c0 272 -3 497 -8 500 -6 4 -616
169 -1167 315 -29 8 -36 5 -83 -43z"/>
</g>
</svg>
